<mxGraphModel><root><mxCell id="0"/><mxCell id="1" parent="0"/><mxCell id="2" value="User" style="shape=umlLifeline;perimeter=lifelinePerimeter;whiteSpace=wrap;container=1;dropTarget=0;collapsible=0;recursiveResize=0;outlineConnect=0;portConstraint=eastwest;newEdgeStyle={&quot;edgeStyle&quot;:&quot;elbowEdgeStyle&quot;,&quot;elbow&quot;:&quot;vertical&quot;,&quot;curved&quot;:0,&quot;rounded&quot;:0};size=65;" vertex="1" parent="1"><mxGeometry width="150" height="460" as="geometry"/></mxCell><mxCell id="3" value="Inventory System" style="shape=umlLifeline;perimeter=lifelinePerimeter;whiteSpace=wrap;container=1;dropTarget=0;collapsible=0;recursiveResize=0;outlineConnect=0;portConstraint=eastwest;newEdgeStyle={&quot;edgeStyle&quot;:&quot;elbowEdgeStyle&quot;,&quot;elbow&quot;:&quot;vertical&quot;,&quot;curved&quot;:0,&quot;rounded&quot;:0};size=65;" vertex="1" parent="1"><mxGeometry x="304" width="150" height="460" as="geometry"/></mxCell><mxCell id="4" value="Database" style="shape=umlLifeline;perimeter=lifelinePerimeter;whiteSpace=wrap;container=1;dropTarget=0;collapsible=0;recursiveResize=0;outlineConnect=0;portConstraint=eastwest;newEdgeStyle={&quot;edgeStyle&quot;:&quot;elbowEdgeStyle&quot;,&quot;elbow&quot;:&quot;vertical&quot;,&quot;curved&quot;:0,&quot;rounded&quot;:0};size=65;" vertex="1" parent="1"><mxGeometry x="559" width="150" height="460" as="geometry"/></mxCell><mxCell id="5" value="Request to remove furniture item" style="verticalAlign=bottom;edgeStyle=elbowEdgeStyle;elbow=vertical;curved=0;rounded=0;endArrow=block;" edge="1" parent="1" source="2" target="3"><mxGeometry relative="1" as="geometry"><Array as="points"><mxPoint x="236" y="109"/></Array></mxGeometry></mxCell><mxCell id="6" value="Query to check availability" style="verticalAlign=bottom;edgeStyle=elbowEdgeStyle;elbow=vertical;curved=0;rounded=0;endArrow=block;" edge="1" parent="1" source="3" target="4"><mxGeometry relative="1" as="geometry"><Array as="points"><mxPoint x="515" y="163"/></Array></mxGeometry></mxCell><mxCell id="7" value="Item available" style="verticalAlign=bottom;edgeStyle=elbowEdgeStyle;elbow=vertical;curved=0;rounded=0;dashed=1;dashPattern=2 3;endArrow=block;" edge="1" parent="1" source="4" target="3"><mxGeometry relative="1" as="geometry"><Array as="points"><mxPoint x="518" y="217"/></Array></mxGeometry></mxCell><mxCell id="8" value="Update inventory" style="curved=1;endArrow=block;" edge="1" parent="1" source="3" target="3"><mxGeometry relative="1" as="geometry"><Array as="points"><mxPoint x="430" y="271"/><mxPoint x="430" y="301"/></Array></mxGeometry></mxCell><mxCell id="9" value="Confirmation of removal" style="verticalAlign=bottom;edgeStyle=elbowEdgeStyle;elbow=vertical;curved=0;rounded=0;dashed=1;dashPattern=2 3;endArrow=block;" edge="1" parent="1" source="3" target="2"><mxGeometry relative="1" as="geometry"><Array as="points"><mxPoint x="239" y="355"/></Array></mxGeometry></mxCell></root></mxGraphModel>